<?xml version="1.0" encoding="iso-8859-1"?>
<!-- Generator: Adobe Illustrator 19.0.0, SVG Export Plug-In . SVG Version: 6.00 Build 0)  -->
<svg version="1.1" id="Capa_1" xmlns="http://www.w3.org/2000/svg" xmlns:xlink="http://www.w3.org/1999/xlink" x="0px" y="0px"
	 viewBox="0 0 512 512" style="enable-background:new 0 0 512 512;" xml:space="preserve">
<g>
	<g>
		<g>
			<path d="M177,347c0-42.631,33.521-77.574,75.588-79.873l-16.73,16.73c-7.81,7.811-7.81,20.475,0,28.285
				C239.763,316.048,244.882,318,250,318s10.237-1.952,14.143-5.857l47-47c7.81-7.811,7.81-20.475,0-28.285l-47-47
				c-7.811-7.811-20.475-7.811-28.285,0c-7.81,7.811-7.81,20.475,0,28.285l9.43,9.43C184.596,233.479,137,284.784,137,347
				c0,15.4,2.963,30.41,8.807,44.61c3.179,7.726,10.637,12.395,18.503,12.395c2.534,0,5.113-0.485,7.603-1.51
				c10.215-4.203,15.088-15.891,10.885-26.105C178.896,366.909,177,357.296,177,347z"/>
			<path d="M462,149.646v-13.324C462,61.154,400.846,0,325.678,0c-32.733,0-64.381,11.776-89.115,33.16
				c-16.364,14.147-29.026,31.881-37.093,51.591C187.067,78.414,173.217,75,159,75c-49.075,0-89,39.925-89,89v18.187
				C29.978,191.162,0,226.68,0,269c0,23.773,8.999,46.067,25.34,62.774C41.881,348.687,64.134,358,88,358c11.046,0,20-8.954,20-20
				c0-11.046-8.954-20-20-20c-26.916,0-48-21.523-48-49c0-27.019,22.36-49,49.846-49H90c11.046,0,20-8.954,20-20v-36
				c0-27.019,21.981-49,49-49c14.035,0,27.427,6.052,36.742,16.604c5.133,5.816,13.166,8.143,20.612,5.959
				c7.445-2.179,12.958-8.466,14.146-16.132C237.693,75.008,278.611,40,325.678,40C378.79,40,422,83.21,422,136.322v24.598
				c0,7.4,4.087,14.196,10.624,17.666C456.912,191.477,472,216.542,472,244c0,32.202-20.562,60.5-51.165,70.416
				c-10.507,3.404-16.265,14.682-12.861,25.191c3.404,10.507,14.682,16.264,25.191,12.861C480.318,337.189,512,293.6,512,244
				C512,205.868,493.119,170.737,462,149.646z"/>
			<path d="M341.4,287.537c-10.197,4.246-15.021,15.955-10.774,26.151C334.796,323.702,337,335.221,337,347
				c0,44.112-35.888,80-80,80c-0.254,0-0.501,0.029-0.753,0.038l14.896-14.896c7.81-7.811,7.81-20.475,0-28.285
				c-7.811-7.811-20.475-7.811-28.285,0l-47,47c-7.81,7.811-7.81,20.475,0,28.285l47,47C246.763,510.048,251.882,512,257,512
				s10.237-1.952,14.143-5.857c7.81-7.811,7.81-20.475,0-28.285l-10.903-10.902C324.916,465.232,377,412.084,377,347
				c0-17.011-3.268-33.847-9.448-48.688C363.305,288.113,351.595,283.289,341.4,287.537z"/>
		</g>
	</g>
</g>
<g>
</g>
<g>
</g>
<g>
</g>
<g>
</g>
<g>
</g>
<g>
</g>
<g>
</g>
<g>
</g>
<g>
</g>
<g>
</g>
<g>
</g>
<g>
</g>
<g>
</g>
<g>
</g>
<g>
</g>
</svg>
