<svg id="Layer_1" enable-background="new 0 0 512 512" height="512" viewBox="0 0 512 512" width="512" xmlns="http://www.w3.org/2000/svg"><g><path d="m94.409 446.158 407.011-129.313c3.327-16.095 5.08-32.765 5.08-49.845 0-135.31-109.69-245-245-245s-245 109.69-245 245c0 70.725 29.979 134.437 77.909 179.158z" fill="#009cf2"/><g><path d="m93.535 223.865c12.593-8.55 27.681-13.447 43.526-13.447 9.92 0 19.598 1.859 28.763 5.526l1.501.601.722-1.446c8.522-17.051 24.793-28.941 43.528-31.806 3.455-.528 6.335-2.856 7.516-6.073 6.736-18.352 19.088-33.602 34.66-44.115-9.767-42.716-47.972-74.595-93.648-74.595-53.07 0-96.092 43.022-96.092 96.092-.001 27.221 11.336 51.779 29.524 69.263z" fill="#ffe400"/></g><g><path d="m105.954 145.332c0-36.13 18.472-67.941 46.483-86.518-49.487 3.906-88.428 45.298-88.428 95.788 0 27.221 11.337 51.779 29.525 69.263 10.511-7.136 22.763-11.715 35.739-13.038-14.569-17.859-23.319-40.649-23.319-65.495z" fill="#fdca00"/></g><g><path d="m209.881 261.339c1.294 3.538 5.016 5.704 8.861 5.155 2.338-.335 4.725-.505 7.095-.505 20.16 0 38.192 12.034 45.938 30.659.131.313.279.614.442.905l1.317 2.35 1.619-2.153c25.359-33.737 64.043-53.086 106.133-53.086 41.197 0 79.295 19.2 104.054 50.338 10.837-7.07 18.109-19.107 18.17-32.901.087-19.748-14.23-36.16-33.048-39.354-2.605-.442-4.745-2.236-5.76-4.676-9.092-21.858-30.638-37.232-55.788-37.232-2.925 0-5.801.21-8.615.613-3.506.503-6.951-1.389-8.167-4.715-13.025-35.636-47.208-61.082-87.355-61.082-40.104 0-74.279 25.383-87.337 60.959-.976 2.658-3.334 4.514-6.133 4.942-20.32 3.108-37.299 16.337-45.645 34.379 20.117 8.034 36.514 24.321 44.219 45.404z" fill="#8adaf9"/></g><g><path d="m218.742 266.494c2.338-.335 4.725-.505 7.095-.505 1.393 0 2.775.063 4.145.176 5.787-22.164 23.978-40.055 48.015-44.274 2.881-.506 5.75-.796 8.591-.885 3.54-.111 6.606-2.57 7.229-6.056 6.567-36.785 35.063-67.366 73.696-74.915-16.535-15.135-38.547-24.379-62.733-24.379-40.104 0-74.279 25.383-87.337 60.959-.976 2.658-3.334 4.514-6.133 4.942-20.32 3.108-37.299 16.337-45.645 34.379 20.116 8.033 36.512 24.321 44.218 45.403 1.292 3.538 5.014 5.704 8.859 5.155z" fill="#5ccbf7"/></g><path d="m501.421 316.845c-22.171-43.857-67.633-73.936-120.133-73.936-44.66 0-84.2 21.782-108.662 55.282 1.259 1.849 3.173 3.124 5.388 3.5 15.547 2.638 26.781 16.016 26.712 31.81-.077 17.636-14.812 31.984-32.847 31.984h-105.57c-7.067 7.693-12.781 16.65-16.747 26.501-1.22 3.031-3.9 5.211-7.13 5.71-24.829 3.841-44.401 23.563-48.022 48.462 43.768 40.839 102.505 65.842 167.09 65.842 118.23 0 216.894-83.747 239.921-195.155z" fill="#b8e9fa"/><g><path d="m160.102 34.966c-4.483 0-8.118-3.634-8.118-8.118v-18.73c0-4.483 3.635-8.118 8.118-8.118s8.118 3.635 8.118 8.118v18.731c-.001 4.483-3.635 8.117-8.118 8.117z" fill="#ffe400"/></g><g><path d="m96.233 52.083c-2.806 0-5.534-1.456-7.038-4.06l-9.365-16.221c-2.242-3.882-.911-8.847 2.971-11.089s8.847-.911 11.089 2.971l9.366 16.221c2.242 3.883.911 8.847-2.971 11.089-1.279.738-2.675 1.089-4.052 1.089z" fill="#fdca00"/></g><g><path d="m49.457 98.844c-1.377 0-2.773-.351-4.051-1.089l-16.222-9.365c-3.882-2.242-5.213-7.206-2.971-11.089 2.241-3.883 7.206-5.213 11.089-2.971l16.221 9.365c3.883 2.242 5.213 7.206 2.971 11.089-1.503 2.604-4.232 4.06-7.037 4.06z" fill="#fdca00"/></g><g><path d="m32.348 162.72h-18.73c-4.483 0-8.118-3.635-8.118-8.118s3.634-8.118 8.118-8.118h18.731c4.483 0 8.118 3.634 8.118 8.118-.001 4.483-3.635 8.118-8.119 8.118z" fill="#fdca00"/></g><g><path d="m33.251 235.963c-2.806 0-5.534-1.456-7.038-4.06-2.242-3.883-.911-8.847 2.971-11.089l16.222-9.365c3.882-2.242 8.848-.911 11.089 2.971 2.242 3.883.912 8.847-2.971 11.089l-16.221 9.365c-1.279.738-2.675 1.089-4.052 1.089z" fill="#fdca00"/></g><g><path d="m270.747 98.844c-2.806 0-5.534-1.456-7.038-4.06-2.242-3.883-.911-8.847 2.971-11.089l16.221-9.365c3.883-2.242 8.848-.911 11.089 2.971 2.242 3.883.911 8.847-2.971 11.089l-16.221 9.366c-1.278.737-2.674 1.088-4.051 1.088z" fill="#ffe400"/></g><g><path d="m223.971 52.083c-1.377 0-2.773-.351-4.051-1.089-3.883-2.242-5.213-7.206-2.971-11.089l9.365-16.221c2.241-3.883 7.206-5.213 11.089-2.971s5.213 7.206 2.971 11.089l-9.366 16.221c-1.503 2.604-4.232 4.06-7.037 4.06z" fill="#ffe400"/></g><path d="m201.528 463.43c3.966-1.473 6.797-4.933 7.665-9.073 7.781-37.096 37.09-67.708 76.652-75.21 4.602-.873 9.188-1.4 13.735-1.605 5.664-.255 10.52-4.258 11.44-9.853 9.25-56.245 50.48-103.931 107.701-119.495-11.883-3.437-24.442-5.285-37.434-5.285-44.66 0-84.2 21.782-108.662 55.282 1.259 1.849 3.173 3.124 5.387 3.5 15.547 2.638 26.781 16.016 26.712 31.81-.077 17.636-14.812 31.984-32.847 31.984h-105.569c-7.067 7.693-12.781 16.65-16.747 26.501-1.22 3.031-3.9 5.211-7.13 5.71-24.828 3.841-44.4 23.563-48.022 48.462 21.201 19.781 45.92 35.832 73.108 47.141 7.155-13.492 19.08-24.326 34.011-29.869z" fill="#8adaf9"/><g><path d="m57.377 264.844c2.386-.365 4.396-1.947 5.228-4.214 11.133-30.329 40.267-51.967 74.455-51.967 34.225 0 63.366 21.693 74.47 52.073 1.036 2.836 3.973 4.448 6.962 4.02 2.399-.344 4.851-.523 7.344-.523 21.44 0 39.809 13.106 47.56 31.74.865 2.08 2.689 3.609 4.91 3.986 16.042 2.722 28.247 16.715 28.174 33.549-.083 18.773-15.83 33.732-34.603 33.732h-205.707c-28.418 0-52.192-22.618-52.445-51.035-.231-25.984 18.785-47.558 43.652-51.361z" fill="#e6f8fc"/></g><g><path d="m51.722 341.621c-.231-25.984 18.785-47.557 43.652-51.361 2.386-.365 4.396-1.947 5.228-4.214 11.132-30.329 40.267-51.967 74.455-51.967 8.067 0 15.846 1.219 23.179 3.459-14.536-17.632-36.538-28.875-61.176-28.875-34.188 0-63.323 21.639-74.455 51.967-.832 2.266-2.842 3.849-5.228 4.214-24.867 3.803-43.883 25.377-43.652 51.361.23 25.873 19.96 46.932 44.939 50.496-4.329-7.386-6.86-15.929-6.942-25.08z" fill="#b8e9fa"/></g><g fill="#fff442"><ellipse cx="165.086" cy="127.849" rx="24.544" ry="24.544" transform="matrix(.924 -.383 .383 .924 -36.359 72.908)"/><circle cx="201.901" cy="101.306" r="9.484"/></g></g></svg>